/* XPM */
static char *ae9ce42b4c1944b99b2d5de97c9780fdUll19vgNqKPvDnOF[] = {
/* columns rows colors chars-per-pixel */
"324 7 4 1 ",
"  c None",
". c #FF33F4",
"X c #33F4FF",
"o c white",
/* pixels */
" .oooooX  .ooooX   .oooooX  .oooooX    .oooX .oooooooX .oooooX .oooooooX .oooooX  .oooooX  .oooooX .ooooooX  .oooooX .ooooooX .oooooooX.oooooooX .oooooX .ooX .ooX.oooooooX.oooooooX.ooX .ooX.ooX     .ooX .ooX.oooX.ooX.oooooooX.ooooooX .oooooooX.ooooooX  .ooooooX.oooooooX.ooX .ooX.ooX .ooX.ooX .ooX.ooX .ooX.ooX .ooX.oooooooX",
".ooX .ooX   .ooX  .ooX  .oX.oo   ooX  .ooooX .ooX     .ooX .ooX     .ooX.ooX .ooX.ooX .ooX.ooX .ooX.ooX .ooX.ooX .ooX.ooX .ooX.ooX     .ooX     .ooX .ooX.ooX .ooX  .oooX       .ooX.ooX .ooX.ooX     .oooXoooX.oooX.ooX.ooX .ooX.oo  .ooX.ooX .ooX.ooX .ooX.ooX       .oooX  .ooX .ooX.ooX .ooX.ooX .ooX.ooX .ooX.ooX .ooX     .ooX",
".ooX .ooX   .ooX        .oX      ooX .oo ooX  .oooooX .ooX         .ooX .ooX .ooX.ooX .ooX.ooX .ooX.ooX .ooX.ooX     .ooX .ooX.ooX     .ooX     .ooX     .ooX .ooX  .oooX       .ooX.ooX.ooX .ooX     .oooooooX.oooo.ooX.ooX .ooX.oo  .ooX.ooX .ooX.ooX .ooX.ooX       .oooX  .ooX .ooX.ooX .ooX.ooX .ooX.oooooooX.oooooooX    .ooX ",
".ooX .ooX   .ooX   .oooooX    ooooX .oo  ooX      .ooX.ooooooX    .ooX   .oooooX  .ooooooX.oooooooX.ooooooX .ooX     .ooX .ooX.oooooX  .oooooX  .ooX     .oooooooX  .oooX       .ooX.oooooX  .ooX     .ooXo.ooX.ooXo.ooX.ooX .ooX.ooooooX .ooX .ooX.ooooooX  .oooooX   .oooX  .ooX .ooX.ooX .ooX.ooX .ooX  .oooX    .oooX    .oooX  ",
".ooX .ooX   .ooX  .ooX           ooX.oooooooX     .ooX.ooX .ooX  .ooX   .ooX .ooX     .ooX.ooX .ooX.ooX .ooX.ooX     .ooX .ooX.ooX     .ooX     .ooX.oooX.ooX .ooX  .oooX  .ooX .ooX.ooX.ooX .ooX     .ooX .ooX.ooXooooX.ooX .ooX.ooX     .ooX .ooX.ooX.oooX     .ooX  .oooX  .ooX .ooX.ooX .ooX.ooXo.ooX.oooooooX  .oooX   .ooX    ",
".ooX .ooX   .ooX  .ooX     .oo   ooX    .ooX .ooX .ooX.ooX .ooX  .ooX   .ooX .ooX.ooX .ooX.ooX .ooX.ooX .ooX.ooX .ooX.ooX .ooX.ooX     .ooX     .ooX  ooX.ooX .ooX  .oooX  .ooo.oooX.ooX .ooX.ooX     .ooX .ooX.ooX.oooX.ooX .ooX.ooX     .ooX.oooX.ooX .ooX     .ooX  .oooX  .ooX .ooX .ooXooX .oooooooX.ooX .ooX  .oooX  .ooX     ",
" .oooooX .oooooooX.oooooooX .oooooX     .ooX  .oooooX  .oooooX   .ooX    .oooooX  .oooooX .ooX .ooX.ooooooX  .oooooX .ooooooX .oooooooX.ooX      .oooooX .ooX .ooX.oooooooX .oooooX .ooX .ooX.oooooooX.ooX .ooX.ooX.oooX.oooooooX.ooX     .oooooooX.ooX .ooX.ooooooX   .oooX  .oooooooX  .oooX  .oooXoooX.ooX .ooX  .oooX  .oooooooX"
};
